{
	"asset":{
		"version":"2.0",
		"generator":"Created using the official Cinema 4D glTF Exporter 1.000x284978"
	},
	"accessors":[{
		"bufferView":0,
		"type":"SCALAR",
		"componentType":5123,
		"count":4524,
		"byteOffset":0,
		"min":[0],
		"max":[3977]
	},
	{
		"bufferView":1,
		"type":"VEC3",
		"componentType":5126,
		"count":3978,
		"byteOffset":0,
		"min":[-368.4661560058594,
		-568.14501953125,
		0.8878681659698486],
		"max":[369.5182189941406,
		662.2122192382813,
		1447.7703857421876]
	},
	{
		"bufferView":1,
		"type":"VEC2",
		"componentType":5126,
		"count":3978,
		"byteOffset":12,
		"min":[0.00291300006210804,
		0.008536994457244873],
		"max":[0.9887700080871582,
		0.9921870231628418]
	}],
	"meshes":[{
		"name":"grp1_2",
		"primitives":[{
			"attributes":{
				"POSITION":1,
				"TEXCOORD_0":2
			},
			"indices":0,
			"material":0
		}]
	}],
	"scenes":[{
		"nodes":[0]
	}],
	"nodes":[{
		"name":"grp1",
		"translation":[-93.92503356933594,
		5.707899570465088,
		0.000008211188287532423],
		"rotation":[0.5000001192092896,
		0.49999991059303286,
		0.49999991059303286,
		-0.5000001192092896],
		"scale":[1.0,
		1.0,
		1.0],
		"children":[1]
	},
	{
		"name":"grp1_2",
		"translation":[-25.65912628173828,
		46.41929244995117,
		249.01756286621095],
		"rotation":[-2.220446049250313e-16,
		0.0,
		0.0,
		-1.0],
		"scale":[1.0,
		1.0,
		1.0],
		"mesh":0
	}],
	"bufferViews":[{
		"buffer":0,
		"byteOffset":0,
		"byteLength":9048,
		"target":34963
	},
	{
		"buffer":0,
		"byteOffset":9048,
		"byteLength":79560,
		"target":34962,
		"byteStride":20
	}],
	"buffers":[{
		"uri":"data:application/octet-stream;base64,",
		"byteLength":88608
	}],
	"materials":[{
		"pbrMetallicRoughness":{
			"baseColorFactor":[0.8,
			0.7427999999999999,
			0.6960000000000001,
			1.0],
			"metallicFactor":0.0,
			"roughnessFactor":0.5
		},
		"emissiveFactor":[0.0,
		0.0,
		0.0],
		"alphaMode":"OPAQUE",
		"doubleSided":false,
		"name":"Mat"
	}]
}