{
	"accessors":[{
		"max":[119],
		"bufferView":0,
		"type":"SCALAR",
		"componentType":5123,
		"count":540,
		"byteOffset":0,
		"min":[0]
	},
	{
		"max":[10.296769142150879,
		100.0,
		10.296769142150879],
		"bufferView":1,
		"type":"VEC3",
		"componentType":5126,
		"count":120,
		"byteOffset":0,
		"min":[-10.61943531036377,
		-100.0,
		-10.61943531036377]
	},
	{
		"max":[1.0,
		1.0],
		"bufferView":1,
		"type":"VEC2",
		"componentType":5126,
		"count":120,
		"byteOffset":12,
		"min":[0.0,
		0.0]
	},
	{
		"max":[197],
		"bufferView":2,
		"type":"SCALAR",
		"componentType":5123,
		"count":600,
		"byteOffset":0,
		"min":[0]
	},
	{
		"max":[71.03226470947266,
		130.2900848388672,
		69.05451965332031],
		"bufferView":3,
		"type":"VEC3",
		"componentType":5126,
		"count":198,
		"byteOffset":0,
		"min":[-68.65126037597656,
		-127.66143035888672,
		-71.39424133300781]
	},
	{
		"max":[1.0,
		1.0],
		"bufferView":3,
		"type":"VEC2",
		"componentType":5126,
		"count":198,
		"byteOffset":12,
		"min":[0.0,
		0.0]
	}],
	"asset":{
		"version":"2.0",
		"generator":"Created using the official Cinema 4D glTF Exporter 1.000x284978"
	},
	"scenes":[{
		"nodes":[0]
	}],
	"nodes":[{
		"name":"tree",
		"translation":[0.0,
		185.725830078125,
		0.0],
		"rotation":[0.0,
		0.0,
		0.0,
		-1.0],
		"scale":[1.0,
		1.0,
		1.0],
		"children":[1,
		3]
	},
	{
		"name":"trunk",
		"translation":[0.0,
		-85.725830078125,
		0.0],
		"rotation":[0.0,
		0.0,
		0.0,
		-1.0],
		"scale":[1.0,
		1.0,
		1.0],
		"children":[2]
	},
	{
		"name":"trunk",
		"mesh":0
	},
	{
		"name":"leaves",
		"translation":[0.0,
		85.725830078125,
		0.0],
		"rotation":[0.0,
		0.0,
		0.0,
		-1.0],
		"scale":[1.0,
		1.0,
		1.0],
		"children":[4]
	},
	{
		"name":"leaves",
		"mesh":1
	}],
	"meshes":[{
		"name":"trunk",
		"primitives":[{
			"attributes":{
				"POSITION":1,
				"TEXCOORD_0":2
			},
			"indices":0,
			"material":0
		}]
	},
	{
		"name":"leaves",
		"primitives":[{
			"attributes":{
				"POSITION":4,
				"TEXCOORD_0":5
			},
			"indices":3,
			"material":1
		}]
	}],
	"bufferViews":[{
		"buffer":0,
		"target":34963,
		"byteOffset":0,
		"byteLength":1080
	},
	{
		"buffer":0,
		"target":34962,
		"byteOffset":1080,
		"byteStride":20,
		"byteLength":2400
	},
	{
		"buffer":1,
		"target":34963,
		"byteOffset":0,
		"byteLength":1200
	},
	{
		"buffer":1,
		"target":34962,
		"byteOffset":1200,
		"byteStride":20,
		"byteLength":3960
	}],
	"materials":[{
		"pbrMetallicRoughness":{
			"baseColorFactor":[0.5408163265306123,
			0.4052397818631585,
			0.30839939281497727,
			1.0],
			"metallicFactor":1.0,
			"roughnessFactor":1.0
		},
		"emissiveFactor":[0.0,
		0.0,
		0.0],
		"alphaMode":"OPAQUE",
		"doubleSided":false,
		"name":"Mat.1"
	},
	{
		"pbrMetallicRoughness":{
			"baseColorFactor":[0.47360431776016179,
			0.7346938775510203,
			0.37038286388935739,
			1.0],
			"metallicFactor":1.0,
			"roughnessFactor":1.0
		},
		"emissiveFactor":[0.0,
		0.0,
		0.0],
		"alphaMode":"OPAQUE",
		"doubleSided":false,
		"name":"Mat"
	}],
	"buffers":[{
		"uri":"data:application/octet-stream;base64,",
		"byteLength":3480
	},
	{
		"uri":"data:application/octet-stream;base64,",
		"byteLength":5160
	}]
}